<mxfile host="Electron" agent="Mozilla/5.0 (Windows NT 10.0; Win64; x64) AppleWebKit/537.36 (KHTML, like Gecko) draw.io/28.1.2 Chrome/138.0.7204.243 Electron/37.4.0 Safari/537.36" version="28.1.2" pages="2">
  <diagram name="Page-1" id="v53bKYuC7yBzTNyNIc8t">
    <mxGraphModel dx="2633" dy="1201" grid="1" gridSize="10" guides="1" tooltips="1" connect="1" arrows="1" fold="1" page="1" pageScale="1" pageWidth="850" pageHeight="1100" math="0" shadow="0">
      <root>
        <mxCell id="0" />
        <mxCell id="1" parent="0" />
        <mxCell id="KyhGXzs-eR2eoZpd1_J4-3" value="" style="group" vertex="1" connectable="0" parent="1">
          <mxGeometry x="-660" y="564" width="240" height="360" as="geometry" />
        </mxCell>
        <mxCell id="HIbShT7YJVeBAYEJPjFj-7" value="" style="group;strokeWidth=2;" parent="KyhGXzs-eR2eoZpd1_J4-3" vertex="1" connectable="0">
          <mxGeometry width="220" height="360" as="geometry" />
        </mxCell>
        <mxCell id="HIbShT7YJVeBAYEJPjFj-8" value="" style="rounded=1;whiteSpace=wrap;html=1;fillColor=#d5e8d4;strokeColor=#82b366;strokeWidth=2;" parent="HIbShT7YJVeBAYEJPjFj-7" vertex="1">
          <mxGeometry width="220" height="360" as="geometry" />
        </mxCell>
        <mxCell id="HIbShT7YJVeBAYEJPjFj-9" value="&lt;b&gt;&lt;font style=&quot;font-size: 17px;&quot;&gt;3. Post-processing Stage&lt;/font&gt;&lt;/b&gt;" style="rounded=1;whiteSpace=wrap;html=1;fillColor=#f5f5f5;strokeColor=#666666;fontColor=#333333;strokeWidth=2;" parent="HIbShT7YJVeBAYEJPjFj-7" vertex="1">
          <mxGeometry width="220" height="40" as="geometry" />
        </mxCell>
        <mxCell id="HIbShT7YJVeBAYEJPjFj-10" value="&lt;b&gt;&lt;font&gt;&lt;font style=&quot;font-size: 14px&quot;&gt;User Simulator&lt;/font&gt;&lt;br&gt;&lt;/font&gt;&lt;/b&gt;&lt;b&gt;&lt;div style=&quot;text-align: left&quot;&gt;&lt;b&gt;&lt;br&gt;&lt;/b&gt;&lt;/div&gt;&lt;div style=&quot;text-align: left&quot;&gt;&lt;span style=&quot;background-color: transparent; color: light-dark(rgb(0, 0, 0), rgb(255, 255, 255)); font-weight: normal;&quot;&gt;&lt;font style=&quot;font-size: 14px;&quot;&gt;- Define user model&lt;/font&gt;&lt;/span&gt;&lt;/div&gt;&lt;/b&gt;&lt;div style=&quot;text-align: left&quot;&gt;&lt;font style=&quot;font-size: 14px;&quot;&gt;- Set iterations/duration&lt;/font&gt;&lt;/div&gt;&lt;div style=&quot;text-align: left&quot;&gt;&lt;br&gt;&lt;/div&gt;" style="rounded=1;whiteSpace=wrap;html=1;fillColor=#ffe6cc;strokeColor=#d79b00;dashed=1;strokeWidth=2;" parent="HIbShT7YJVeBAYEJPjFj-7" vertex="1">
          <mxGeometry x="16.041666666666664" y="220" width="187.91666666666666" height="120" as="geometry" />
        </mxCell>
        <mxCell id="X1Qtn2GlAUyyHQaoUXew-1" style="edgeStyle=orthogonalEdgeStyle;rounded=0;orthogonalLoop=1;jettySize=auto;html=1;strokeWidth=2;dashed=1;" parent="HIbShT7YJVeBAYEJPjFj-7" edge="1">
          <mxGeometry relative="1" as="geometry">
            <mxPoint x="66.0825" y="180.60000000000002" as="sourcePoint" />
            <mxPoint x="66" y="220" as="targetPoint" />
          </mxGeometry>
        </mxCell>
        <mxCell id="svtzmp0sy5pkKN7DZPGf-22" style="edgeStyle=orthogonalEdgeStyle;rounded=0;orthogonalLoop=1;jettySize=auto;html=1;entryX=0.741;entryY=1.014;entryDx=0;entryDy=0;strokeWidth=2;dashed=1;entryPerimeter=0;" parent="HIbShT7YJVeBAYEJPjFj-7" target="HIbShT7YJVeBAYEJPjFj-21" edge="1">
          <mxGeometry relative="1" as="geometry">
            <mxPoint x="154.73333333333335" y="219" as="sourcePoint" />
            <mxPoint x="154.00000000000006" y="181.03999999999996" as="targetPoint" />
          </mxGeometry>
        </mxCell>
        <mxCell id="HIbShT7YJVeBAYEJPjFj-21" value="&lt;b&gt;&lt;font style=&quot;font-size: 14px&quot;&gt;Re-ranker Selection&lt;/font&gt;&lt;/b&gt;&lt;br&gt;&lt;br&gt;&lt;div style=&quot;text-align: left;&quot;&gt;&lt;font style=&quot;font-size: 14px;&quot;&gt;&lt;span style=&quot;font-weight: normal; background-color: transparent; color: light-dark(rgb(0, 0, 0), rgb(255, 255, 255));&quot;&gt;-&amp;nbsp;&lt;/span&gt;&lt;span style=&quot;background-color: transparent; color: light-dark(rgb(0, 0, 0), rgb(255, 255, 255));&quot;&gt;Static re-ranking&lt;/span&gt;&lt;/font&gt;&lt;/div&gt;&lt;div style=&quot;text-align: left;&quot;&gt;&lt;span style=&quot;font-weight: normal; background-color: transparent; color: light-dark(rgb(0, 0, 0), rgb(255, 255, 255));&quot;&gt;&lt;font style=&quot;font-size: 14px;&quot;&gt;- Dynamic re-ranking&lt;/font&gt;&lt;/span&gt;&lt;/div&gt;&lt;div style=&quot;text-align: left&quot;&gt;&lt;font style=&quot;font-size: 14px;&quot;&gt;&lt;br&gt;&lt;/font&gt;&lt;/div&gt;" style="rounded=1;whiteSpace=wrap;html=1;fillColor=#ffe6cc;strokeColor=#d79b00;dashed=1;strokeWidth=2;" parent="KyhGXzs-eR2eoZpd1_J4-3" vertex="1">
          <mxGeometry x="20" y="60" width="180" height="120" as="geometry" />
        </mxCell>
        <mxCell id="KyhGXzs-eR2eoZpd1_J4-4" value="" style="group" vertex="1" connectable="0" parent="1">
          <mxGeometry x="-410" y="564" width="220" height="362" as="geometry" />
        </mxCell>
        <mxCell id="HIbShT7YJVeBAYEJPjFj-4" value="" style="group;strokeWidth=2;" parent="KyhGXzs-eR2eoZpd1_J4-4" vertex="1" connectable="0">
          <mxGeometry width="220" height="362" as="geometry" />
        </mxCell>
        <mxCell id="HIbShT7YJVeBAYEJPjFj-5" value="" style="rounded=1;whiteSpace=wrap;html=1;fillColor=#d5e8d4;strokeColor=#82b366;" parent="HIbShT7YJVeBAYEJPjFj-4" vertex="1">
          <mxGeometry y="4.96" width="220" height="355.04" as="geometry" />
        </mxCell>
        <mxCell id="HIbShT7YJVeBAYEJPjFj-6" value="&lt;b&gt;&lt;font style=&quot;font-size: 17px;&quot;&gt;4. Evaluation Stage&lt;/font&gt;&lt;/b&gt;" style="rounded=1;whiteSpace=wrap;html=1;fillColor=#f5f5f5;strokeColor=#666666;fontColor=#333333;strokeWidth=2;" parent="HIbShT7YJVeBAYEJPjFj-4" vertex="1">
          <mxGeometry width="220" height="39.67123287671233" as="geometry" />
        </mxCell>
        <mxCell id="HIbShT7YJVeBAYEJPjFj-17" style="edgeStyle=orthogonalEdgeStyle;rounded=0;orthogonalLoop=1;jettySize=auto;html=1;exitX=0.5;exitY=1;exitDx=0;exitDy=0;entryX=0.5;entryY=0;entryDx=0;entryDy=0;strokeWidth=2;dashed=1;" parent="KyhGXzs-eR2eoZpd1_J4-4" source="HIbShT7YJVeBAYEJPjFj-18" target="HIbShT7YJVeBAYEJPjFj-19" edge="1">
          <mxGeometry relative="1" as="geometry" />
        </mxCell>
        <mxCell id="HIbShT7YJVeBAYEJPjFj-18" value="&lt;font style=&quot;font-weight: bold ; font-size: 14px&quot;&gt;Metrics&lt;/font&gt;&lt;br&gt;&lt;br&gt;&lt;div style=&quot;text-align: left&quot;&gt;&lt;span style=&quot;background-color: transparent; color: light-dark(rgb(0, 0, 0), rgb(255, 255, 255));&quot;&gt;&lt;font style=&quot;font-size: 14px;&quot;&gt;- Normative diversity&lt;/font&gt;&lt;/span&gt;&lt;/div&gt;&lt;div style=&quot;text-align: left&quot;&gt;&lt;span style=&quot;font-size: 14px;&quot;&gt;- Traditional diversity&lt;/span&gt;&lt;/div&gt;&lt;div style=&quot;text-align: left&quot;&gt;&lt;span style=&quot;font-size: 14px;&quot;&gt;&lt;br&gt;&lt;/span&gt;&lt;/div&gt;&lt;div style=&quot;text-align: left&quot;&gt;&lt;span style=&quot;font-size: 14px;&quot;&gt;&lt;br&gt;&lt;/span&gt;&lt;/div&gt;" style="rounded=1;whiteSpace=wrap;html=1;fillColor=#ffe6cc;strokeColor=#d79b00;strokeWidth=2;" parent="KyhGXzs-eR2eoZpd1_J4-4" vertex="1">
          <mxGeometry x="18.333333333333332" y="60" width="183.33333333333331" height="120" as="geometry" />
        </mxCell>
        <mxCell id="HIbShT7YJVeBAYEJPjFj-19" value="&lt;font style=&quot;font-weight: bold ; font-size: 14px&quot;&gt;Visualization&lt;/font&gt;&lt;br&gt;&lt;br&gt;&lt;div style=&quot;text-align: left&quot;&gt;&lt;span style=&quot;background-color: transparent; color: light-dark(rgb(0, 0, 0), rgb(255, 255, 255));&quot;&gt;&lt;font style=&quot;font-size: 14px;&quot;&gt;-&amp;nbsp;&lt;/font&gt;&lt;/span&gt;&lt;span style=&quot;font-size: 14px; background-color: transparent; color: light-dark(rgb(0, 0, 0), rgb(255, 255, 255));&quot;&gt;Informfully integration&lt;/span&gt;&lt;/div&gt;&lt;div style=&quot;text-align: left&quot;&gt;&lt;span style=&quot;background-color: transparent; color: light-dark(rgb(0, 0, 0), rgb(255, 255, 255));&quot;&gt;&lt;font style=&quot;font-size: 14px;&quot;&gt;- Style selection&lt;/font&gt;&lt;/span&gt;&lt;/div&gt;&lt;div style=&quot;text-align: left&quot;&gt;&lt;span&gt;&lt;br&gt;&lt;/span&gt;&lt;/div&gt;" style="rounded=1;whiteSpace=wrap;html=1;fillColor=#ffe6cc;strokeColor=#d79b00;strokeWidth=2;dashed=1;" parent="KyhGXzs-eR2eoZpd1_J4-4" vertex="1">
          <mxGeometry x="18.333333333333332" y="218" width="183.33333333333331" height="125" as="geometry" />
        </mxCell>
        <mxCell id="KyhGXzs-eR2eoZpd1_J4-5" value="" style="group" vertex="1" connectable="0" parent="1">
          <mxGeometry x="-660" y="174" width="240" height="470" as="geometry" />
        </mxCell>
        <mxCell id="HIbShT7YJVeBAYEJPjFj-1" value="" style="group;strokeWidth=2;" parent="KyhGXzs-eR2eoZpd1_J4-5" vertex="1" connectable="0">
          <mxGeometry width="220" height="360" as="geometry" />
        </mxCell>
        <mxCell id="HIbShT7YJVeBAYEJPjFj-2" value="" style="rounded=1;whiteSpace=wrap;html=1;fillColor=#d5e8d4;strokeColor=#82b366;" parent="HIbShT7YJVeBAYEJPjFj-1" vertex="1">
          <mxGeometry width="220" height="360" as="geometry" />
        </mxCell>
        <mxCell id="HIbShT7YJVeBAYEJPjFj-3" value="&lt;b&gt;&lt;font style=&quot;font-size: 17px;&quot;&gt;1. Pre-processing Stage&lt;/font&gt;&lt;/b&gt;" style="rounded=1;whiteSpace=wrap;html=1;fillColor=#f5f5f5;strokeColor=#666666;fontColor=#333333;strokeWidth=2;" parent="HIbShT7YJVeBAYEJPjFj-1" vertex="1">
          <mxGeometry width="220" height="40" as="geometry" />
        </mxCell>
        <mxCell id="HIbShT7YJVeBAYEJPjFj-22" style="edgeStyle=orthogonalEdgeStyle;rounded=0;orthogonalLoop=1;jettySize=auto;html=1;exitX=0.5;exitY=1;exitDx=0;exitDy=0;entryX=0.5;entryY=0;entryDx=0;entryDy=0;strokeWidth=2;" parent="KyhGXzs-eR2eoZpd1_J4-5" source="HIbShT7YJVeBAYEJPjFj-23" target="HIbShT7YJVeBAYEJPjFj-27" edge="1">
          <mxGeometry relative="1" as="geometry" />
        </mxCell>
        <mxCell id="HIbShT7YJVeBAYEJPjFj-23" value="&lt;font style=&quot;font-size: 14px&quot;&gt;&lt;b&gt;Data Loading&lt;/b&gt;&lt;/font&gt;&lt;br&gt;&lt;br&gt;&lt;div style=&quot;text-align: left&quot;&gt;&lt;div&gt;&lt;span style=&quot;background-color: transparent; color: light-dark(rgb(0, 0, 0), rgb(255, 255, 255));&quot;&gt;&lt;font style=&quot;font-size: 14px;&quot;&gt;- Cornac datasets&lt;/font&gt;&lt;/span&gt;&lt;/div&gt;&lt;div&gt;&lt;font style=&quot;font-size: 14px;&quot;&gt;- Cornac + enrichments&lt;/font&gt;&lt;/div&gt;&lt;div&gt;&lt;font style=&quot;font-size: 14px;&quot;&gt;- Local data + enrichments&lt;/font&gt;&lt;/div&gt;&lt;div&gt;&lt;font style=&quot;font-size: 14px;&quot;&gt;&lt;br&gt;&lt;/font&gt;&lt;/div&gt;&lt;/div&gt;" style="rounded=1;whiteSpace=wrap;html=1;fillColor=#ffe6cc;strokeColor=#d79b00;strokeWidth=2;" parent="KyhGXzs-eR2eoZpd1_J4-5" vertex="1">
          <mxGeometry x="18.333333333333332" y="60" width="183.33333333333331" height="120" as="geometry" />
        </mxCell>
        <mxCell id="HIbShT7YJVeBAYEJPjFj-27" value="&lt;span style=&quot;font-weight: bold ; font-size: 14px&quot;&gt;Data&amp;nbsp;&lt;/span&gt;&lt;span style=&quot;font-weight: bold ; font-size: 14px&quot;&gt;Augmentation&lt;/span&gt;&lt;br&gt;&lt;div style=&quot;text-align: left&quot;&gt;&lt;b&gt;&lt;br&gt;&lt;/b&gt;&lt;/div&gt;&lt;div style=&quot;text-align: left;&quot;&gt;&lt;div style=&quot;&quot;&gt;&lt;span style=&quot;font-size: 14px; background-color: transparent; color: light-dark(rgb(0, 0, 0), rgb(255, 255, 255));&quot;&gt;- Data augmentation&lt;/span&gt;&lt;/div&gt;&lt;div style=&quot;&quot;&gt;&lt;font style=&quot;font-size: 14px;&quot;&gt;- Data exclusion&lt;/font&gt;&lt;/div&gt;&lt;div style=&quot;&quot;&gt;&lt;font style=&quot;font-size: 14px;&quot;&gt;- Data cleaning&lt;/font&gt;&lt;/div&gt;&lt;/div&gt;" style="rounded=1;whiteSpace=wrap;html=1;fillColor=#ffe6cc;strokeColor=#d79b00;strokeWidth=2;dashed=1;" parent="KyhGXzs-eR2eoZpd1_J4-5" vertex="1">
          <mxGeometry x="18.333333333333332" y="220" width="183.33333333333331" height="120" as="geometry" />
        </mxCell>
        <mxCell id="HIbShT7YJVeBAYEJPjFj-11" value="" style="group;strokeWidth=2;" parent="1" vertex="1" connectable="0">
          <mxGeometry x="-410" y="174" width="220" height="360" as="geometry" />
        </mxCell>
        <mxCell id="HIbShT7YJVeBAYEJPjFj-12" value="" style="rounded=1;whiteSpace=wrap;html=1;fillColor=#d5e8d4;strokeColor=#82b366;" parent="HIbShT7YJVeBAYEJPjFj-11" vertex="1">
          <mxGeometry width="220" height="360" as="geometry" />
        </mxCell>
        <mxCell id="HIbShT7YJVeBAYEJPjFj-13" value="&lt;b&gt;&lt;font style=&quot;font-size: 17px;&quot;&gt;2. In-processing Stage&lt;/font&gt;&lt;/b&gt;" style="rounded=1;whiteSpace=wrap;html=1;fillColor=#f5f5f5;strokeColor=#666666;fontColor=#333333;strokeWidth=2;" parent="HIbShT7YJVeBAYEJPjFj-11" vertex="1">
          <mxGeometry width="220" height="40" as="geometry" />
        </mxCell>
        <mxCell id="HIbShT7YJVeBAYEJPjFj-14" style="edgeStyle=orthogonalEdgeStyle;rounded=0;orthogonalLoop=1;jettySize=auto;html=1;exitX=0.5;exitY=1;exitDx=0;exitDy=0;strokeWidth=2;" parent="HIbShT7YJVeBAYEJPjFj-11" source="HIbShT7YJVeBAYEJPjFj-15" edge="1">
          <mxGeometry relative="1" as="geometry">
            <mxPoint x="110.88505747126456" y="220" as="targetPoint" />
            <Array as="points">
              <mxPoint x="110.91666666666666" y="180" />
            </Array>
          </mxGeometry>
        </mxCell>
        <mxCell id="HIbShT7YJVeBAYEJPjFj-15" value="&lt;b&gt;&lt;font style=&quot;font-size: 14px&quot;&gt;Data Splitting&lt;/font&gt;&lt;/b&gt;&lt;br&gt;&lt;br&gt;&lt;div style=&quot;text-align: left;&quot;&gt;&lt;font style=&quot;font-size: 14px;&quot;&gt;- Custom splitting&lt;/font&gt;&lt;/div&gt;&lt;div style=&quot;text-align: left;&quot;&gt;&lt;font style=&quot;font-size: 14px;&quot;&gt;- Statistical analysis&lt;/font&gt;&lt;/div&gt;&lt;div style=&quot;text-align: left&quot;&gt;&lt;div&gt;&lt;font style=&quot;font-size: 14px;&quot;&gt;- Redundancy checks&lt;/font&gt;&lt;/div&gt;&lt;/div&gt;" style="rounded=1;whiteSpace=wrap;html=1;fillColor=#ffe6cc;strokeColor=#d79b00;strokeWidth=2;" parent="HIbShT7YJVeBAYEJPjFj-11" vertex="1">
          <mxGeometry x="17.1875" y="60" width="185.625" height="120" as="geometry" />
        </mxCell>
        <mxCell id="HIbShT7YJVeBAYEJPjFj-16" value="&lt;b&gt;&lt;font&gt;&lt;font style=&quot;font-size: 14px&quot;&gt;Model Selection&lt;/font&gt;&lt;br&gt;&lt;/font&gt;&lt;/b&gt;&lt;b&gt;&lt;div style=&quot;text-align: left&quot;&gt;&lt;b&gt;&lt;br&gt;&lt;/b&gt;&lt;/div&gt;&lt;div style=&quot;text-align: left&quot;&gt;&lt;font style=&quot;font-size: 14px;&quot;&gt;&lt;span style=&quot;background-color: transparent; color: light-dark(rgb(0, 0, 0), rgb(255, 255, 255)); font-weight: normal;&quot;&gt;- Normative models&lt;/span&gt;&lt;/font&gt;&lt;/div&gt;&lt;div style=&quot;text-align: left&quot;&gt;&lt;span style=&quot;background-color: transparent; color: light-dark(rgb(0, 0, 0), rgb(255, 255, 255)); font-weight: normal;&quot;&gt;&lt;font style=&quot;font-size: 14px;&quot;&gt;- Random walks&lt;/font&gt;&lt;/span&gt;&lt;/div&gt;&lt;/b&gt;&lt;div style=&quot;text-align: left&quot;&gt;&lt;font style=&quot;font-size: 14px;&quot;&gt;- Neural models&lt;/font&gt;&lt;/div&gt;&lt;div style=&quot;text-align: left&quot;&gt;&lt;font style=&quot;font-size: 14px;&quot;&gt;&lt;br&gt;&lt;/font&gt;&lt;/div&gt;" style="rounded=1;whiteSpace=wrap;html=1;fillColor=#ffe6cc;strokeColor=#d79b00;strokeWidth=2;" parent="HIbShT7YJVeBAYEJPjFj-11" vertex="1">
          <mxGeometry x="14.895833333333332" y="220" width="187.91666666666666" height="120" as="geometry" />
        </mxCell>
      </root>
    </mxGraphModel>
  </diagram>
  <diagram id="zF98OjqiQ4ushLN_GH9x" name="Explainability">
    <mxGraphModel dx="1102" dy="642" grid="1" gridSize="10" guides="1" tooltips="1" connect="1" arrows="1" fold="1" page="1" pageScale="1" pageWidth="1100" pageHeight="850" math="0" shadow="0">
      <root>
        <mxCell id="ev6mtNF5K1_pZiudceaX-0" />
        <mxCell id="ev6mtNF5K1_pZiudceaX-1" parent="ev6mtNF5K1_pZiudceaX-0" />
      </root>
    </mxGraphModel>
  </diagram>
</mxfile>
